<svg width="256" height="256" viewBox="0 0 1025 1024" xmlns="http://www.w3.org/2000/svg"><rect x="0" y="0" width="1025" height="1024" rx="8" fill="none"/><svg xmlns="http://www.w3.org/2000/svg" viewBox="0 0 1025 1024" fill="#000000" x="0" y="0" width="1025" height="1024"><path fill="#000000" d="M896.428 1024h-768q-53 0-90.5-37.5T.428 896V128q0-53 37.5-90.5t90.5-37.5h768q53 0 90.5 37.5t37.5 90.5v768q0 53-37.5 90.5t-90.5 37.5zm-576-288q0-13-9.5-22.5t-22.5-9.5h-64q-13 0-22.5 9.5t-9.5 22.5v128q0 13 9.5 22.5t22.5 9.5h64q13 0 22.5-9.5t9.5-22.5V736zm256-256q0-13-9.5-22.5t-22.5-9.5h-64q-13 0-22.5 9.5t-9.5 22.5v384q0 13 9.5 22.5t22.5 9.5h64q13 0 22.5-9.5t9.5-22.5V480zm256-320q0-13-9.5-22.5t-22.5-9.5h-64q-13 0-22.5 9.5t-9.5 22.5v704q0 13 9.5 22.5t22.5 9.5h64q13 0 22.5-9.5t9.5-22.5V160z"/></svg></svg>